<svg xmlns="http://www.w3.org/2000/svg" width="24" height="24" viewBox="0 0 24 24" fill="none" stroke="currentColor" stroke-width="2" stroke-linecap="round" stroke-linejoin="round">
  <rect x="13" y="2" width="3" height="8" rx="1.5"/>
  <path d="M19 8.5v-1a1.5 1.5 0 0 0-1.5-1.5H17"/>
  <rect x="8" y="14" width="3" height="8" rx="1.5"/>
  <path d="M5 15.5v1a1.5 1.5 0 0 0 1.5 1.5H7"/>
  <rect x="14" y="13" width="8" height="3" rx="1.5"/>
  <path d="M15.5 19h1a1.5 1.5 0 0 0 1.5-1.5V17"/>
  <rect x="2" y="8" width="8" height="3" rx="1.5"/>
  <path d="M8.5 5h-1a1.5 1.5 0 0 0-1.5 1.5V7"/>
</svg>
