<svg width="24" height="24" viewBox="0 0 24 24" fill="none" xmlns="http://www.w3.org/2000/svg">
  <path d="M14 2H6C4.9 2 4 2.9 4 4V20C4 21.1 4.9 22 6 22H18C19.1 22 20 21.1 20 20V8L14 2Z" fill="#FFF3E0"/>
  <path d="M14 2V8H20" fill="#FFE0B2"/>
  <rect x="11" y="4" width="2" height="2" fill="#FF6F00"/>
  <rect x="11" y="8" width="2" height="2" fill="#FF6F00"/>
  <rect x="11" y="12" width="2" height="2" fill="#FF6F00"/>
  <rect x="11" y="16" width="2" height="2" fill="#FF6F00"/>
  <path d="M14 2H6C4.9 2 4 2.9 4 4V20C4 21.1 4.9 22 6 22H18C19.1 22 20 21.1 20 20V8L14 2Z" stroke="#FF6F00" stroke-width="0.5"/>
</svg>
